<svg width="30" height="30" viewBox="0 0 30 30" fill="none" xmlns="http://www.w3.org/2000/svg">
<path d="M0.75 6.375L5.25 0H9.9375L6 5.625H17.8125C21.0448 5.625 24.1448 6.90904 26.4304 9.19464C28.716 11.4802 30 14.5802 30 17.8125C30 21.0448 28.716 24.1448 26.4304 26.4304C24.1448 28.716 21.0448 30 17.8125 30H9.375L11.25 26.25H17.8125C20.0503 26.25 22.1964 25.3611 23.7787 23.7787C25.3611 22.1964 26.25 20.0503 26.25 17.8125C26.25 15.5747 25.3611 13.4286 23.7787 11.8463C22.1964 10.2639 20.0503 9.375 17.8125 9.375H6L9.9375 15H5.25L0.75 8.625L0 7.5L0.75 6.375Z" fill="white"/>
</svg>
